<svg viewbox="0 0 240 240" xmlns="http://www.w3.org/2000/svg" width="240" height="240">
  <path fill="blue" d="M0,40 l40,-40 40,40 -40,40 -40,-40"/>
  <path fill="blue" d="M160,40 l40,-40 40,40 -40,40 -40,-40"/>
  <path fill="blue" d="M0,200 l40,-40 40,40 -40,40 -40,-40"/>
  <path fill="blue" d="M160,200 l40,-40 40,40 -40,40 -40,-40"/>
  <path fill="green" d="M0,120 l26.666,-40 h26.666 l26.666,40 l-26.666,40 h-26.666 z"/>
  <path fill="green" d="M80,40 l26.666,-40 h26.666 l26.666,40 l-26.666,40 h-26.666 z"/>
  <path fill="green" d="M160,120 l26.666,-40 h26.666 l26.666,40 l-26.666,40 h-26.666 z"/>
  <path fill="green" d="M80,200 l26.666,-40 h26.666 l26.666,40 l-26.666,40 h-26.666 z"/>
</svg>