<?xml version="1.0" encoding="UTF-8" standalone="no"?>
<!-- Created with Inkscape (http://www.inkscape.org/) -->
<svg
   xmlns:svg="http://www.w3.org/2000/svg"
   xmlns="http://www.w3.org/2000/svg"
   version="1.0"
   width="113.28001pt"
   height="158.89pt"
   id="svg2">
  <defs
     id="defs3" />
  <g
     transform="matrix(0.240216,0,0,0.240216,2.786448,4.267222)"
     id="layer1">
    <path
       d="M 514.25183,32.312286 C 462.60025,45.101496 371.31924,46.452526 290.41665,36.354476 C 214.66567,33.966956 32.54136,14.648006 32.2604,209.54198 C 31.97944,405.4461 231.17596,389.05565 290.41665,392.63573 C 292.7273,441.3511 291.72308,654.51476 290.41665,702.41698 C 246.34903,721.94286 167.80215,759.60919 244.91269,758.95917 L 499.67695,758.95917 C 580.35791,759.03405 498.28983,719.68404 462.2604,702.41698 L 462.2604,85.010726 C 492.80976,82.152126 537.97093,55.651886 514.25183,32.312286 z M 403.15649,87.229476 L 403.15649,701.40683 C 382.26237,716.55909 370.45445,715.54896 348.55022,702.41698 L 348.55022,85.209166 C 372.92675,85.209166 376.9657,86.345606 403.15649,87.229476 z M 290.41665,84.666976 L 290.41665,339.92555 C 246.64853,339.37261 101.07965,334.12564 102.74089,217.01073 C 104.29829,108.16251 185.87658,86.464636 290.41665,84.666976 z "
       style="fill:#000000;fill-opacity:1;fill-rule:evenodd;stroke:#000000;stroke-width:5.81435585pt;stroke-linecap:butt;stroke-linejoin:miter;stroke-opacity:1"
       id="path1331" />
  </g>
</svg>
