<svg width="240" height="240" viewBox="0 0 240 240" fill="none" xmlns="http://www.w3.org/2000/svg">
<rect x="5" y="5" width="230" height="230" rx="33" stroke="black" stroke-width="10"/>
<path d="M213 131C219.037 137.074 227.489 153.596 213 171.089C198.511 188.582 206.963 206.319 213 213" stroke="black" stroke-width="10"/>
<path d="M213 213C206.926 206.963 190.404 198.511 172.911 213C155.418 227.489 137.681 219.037 131 213" stroke="black" stroke-width="10"/>
<path d="M27 213C33.0741 206.963 49.5956 198.511 67.0889 213C84.5822 227.489 102.319 219.037 109 213" stroke="black" stroke-width="10"/>
<path d="M27 213C33.037 206.926 41.4888 190.404 27 172.911C12.5112 155.418 20.963 137.681 27 131" stroke="black" stroke-width="10"/>
<path d="M27 25C33.037 31.0741 41.4888 47.5956 27 65.0889C12.5112 82.5822 20.963 100.319 27 107" stroke="black" stroke-width="10"/>
<path d="M109 25C102.926 18.963 86.4044 10.5112 68.9111 25C51.4178 39.4888 33.6815 31.037 27 25" stroke="black" stroke-width="10"/>
<path d="M213 107C219.037 100.926 227.489 84.4044 213 66.9111C198.511 49.4178 206.963 31.6815 213 25" stroke="black" stroke-width="10"/>
<path d="M131 25C137.074 18.963 153.596 10.5112 171.089 25C188.582 39.4888 206.319 31.037 213 25" stroke="black" stroke-width="10"/>
</svg>
