<svg width="240" height="242" viewBox="0 0 240 242" fill="none" xmlns="http://www.w3.org/2000/svg">
<path d="M118.534 49.3112V29M118.534 49.3112C116.319 96.8083 114.499 119.86 103.262 153.471M118.534 49.3112C120.749 96.8083 124.151 119.86 135.388 153.471M88.3237 182.636C76.808 201.227 61.8287 220.818 50 237C50 237 62.6302 237 76.7198 237C95.3179 180.553 144.682 180.553 159.567 237C173.656 237 190 237 190 237C178.171 220.818 163.352 201.227 151.445 182.636M88.3237 182.636C94.659 172.409 101.85 158.68 103.262 153.471M88.3237 182.636H119.321H151.445M151.445 182.636C144.895 172.409 136.792 158.68 135.388 153.471M103.262 153.471H135.388" stroke="black" stroke-width="10"/>
</svg>
