<svg width="240" height="240" viewBox="0 0 240 240" fill="none" xmlns="http://www.w3.org/2000/svg">
<g clip-path="url(#clip0_64_2)">
<path d="M43.8064 3L30.9032 116M75.8064 3L64.4516 116M2 45H114M2 78H114" stroke="black" stroke-width="10"/>
<path d="M125 147.5V170.75M125 193V170.75M125 170.75H154M154 170.75V147.5M154 170.75V193" stroke="url(#paint0_linear_64_2)" stroke-width="10"/>
<path d="M18.9688 174.594H8.28125V193H2.25V147.5H17.3125C22.4375 147.5 26.375 148.667 29.125 151C31.8958 153.333 33.2812 156.729 33.2812 161.188C33.2812 164.021 32.5104 166.49 30.9688 168.594C29.4479 170.698 27.3229 172.271 24.5938 173.312L35.2812 192.625V193H28.8438L18.9688 174.594ZM8.28125 169.688H17.5C20.4792 169.688 22.8438 168.917 24.5938 167.375C26.3646 165.833 27.25 163.771 27.25 161.188C27.25 158.375 26.4062 156.219 24.7188 154.719C23.0521 153.219 20.6354 152.458 17.4688 152.438H8.28125V169.688ZM67.4375 171.969H47.7188V188.094H70.625V193H41.7188V147.5H70.3125V152.438H47.7188V167.062H67.4375V171.969ZM78.0938 193V147.5H90.9375C94.8958 147.5 98.3958 148.375 101.438 150.125C104.479 151.875 106.823 154.365 108.469 157.594C110.135 160.823 110.979 164.531 111 168.719V171.625C111 175.917 110.167 179.677 108.5 182.906C106.854 186.135 104.49 188.615 101.406 190.344C98.3438 192.073 94.7708 192.958 90.6875 193H78.0938ZM84.0938 152.438V188.094H90.4062C95.0312 188.094 98.625 186.656 101.188 183.781C103.771 180.906 105.062 176.812 105.062 171.5V168.844C105.062 163.677 103.844 159.667 101.406 156.812C98.9896 153.938 95.5521 152.479 91.0938 152.438H84.0938Z" fill="black"/>
<path d="M81 170V150C99.9769 148.736 107.5 153.5 108 170C106.5 188 101 191 81 190.5V170Z" stroke="#FF0000" stroke-width="10"/>
<path d="M124 82.7281V64.7281M124 64.7281V42.2281C143.47 41.1388 148.586 43.8137 149.5 53.2281C148.82 63.2679 142.178 65.8315 124 64.7281ZM140 64.1953L149.5 82.7281" stroke="#FF0000" stroke-width="10"/>
<path d="M192 50.5C186.5 33 164.5 37 162.5 52C161.991 58.2487 161.743 62.2741 162.5 68.5C164.02 81 182.061 86.242 192 76V63H178" stroke="#00FF00" stroke-width="10"/>
<path d="M207 59.5V40.5C225 39.0001 230.98 40.2125 231 48.5C231.022 57.5 225.5 59.5 207 59.5ZM207 59.5V81C227.5 82 231.826 78.9962 232 70.5C232.367 61.4196 226.517 59.0775 207 59.5Z" stroke="#0000FF" stroke-width="10"/>
<path d="M195 159C195 147.5 170.5 144.5 170.5 159C170.5 172.5 195.5 168 195.5 181.5C195.5 194 170.5 195 168 181.5" stroke="url(#paint1_linear_64_2)" stroke-width="10"/>
<path d="M209 148V190.5H233.363" stroke="url(#paint2_linear_64_2)" stroke-width="10"/>
<path d="M5.5 192.5V172M5.5 172V150.5C24.263 148.946 30.5 151.5 30.5 161.5C29.5 166.5 27.5 170.5 21 172M5.5 172H21M21 172L32 192.5" stroke="#FF0000" stroke-width="10"/>
<path d="M45 169.5V149.5H70.5M45 169.5V190.5H70.5M45 169.5H67.5" stroke="#FF0000" stroke-width="10"/>
</g>
<defs>
<linearGradient id="paint0_linear_64_2" x1="139.5" y1="151" x2="139.5" y2="190.5" gradientUnits="userSpaceOnUse">
<stop stop-color="#FF0000"/>
<stop offset="0.247917" stop-color="#FFC700"/>
<stop offset="0.482292" stop-color="#00FF00"/>
<stop offset="0.7375" stop-color="#00FFD3"/>
<stop offset="1" stop-color="#0000FF"/>
</linearGradient>
<linearGradient id="paint1_linear_64_2" x1="182.75" y1="160.731" x2="182.75" y2="180.264" gradientUnits="userSpaceOnUse">
<stop/>
<stop offset="1" stop-color="#FF0000"/>
</linearGradient>
<linearGradient id="paint2_linear_64_2" x1="222.068" y1="159.64" x2="222.068" y2="179.389" gradientUnits="userSpaceOnUse">
<stop stop-color="white"/>
<stop offset="1" stop-color="#FF0000"/>
</linearGradient>
<clipPath id="clip0_64_2">
<rect width="240" height="240" fill="white"/>
</clipPath>
</defs>
</svg>
