<svg width="240" height="240" viewBox="0 0 240 240" fill="none" xmlns="http://www.w3.org/2000/svg">
<path d="M114.5 148H17L42.8163 199H200.531L224 148H114.5ZM114.5 148L120.5 110.5M120.5 110.5V52.5M120.5 110.5H39.5306L120.5 52.5M120.5 110.5L129 148L123.9 125.5H213.204L120.5 41V52.5" stroke="black" stroke-width="10"/>
<path d="M212 204C203.5 204 189 218.5 180.5 218.5C172 218.5 170 204 160.5 204C151 204 146.5 218.5 139.5 218.5C132.5 218.5 125 204 117.5 204C110 204 102.5 218.5 94 218.5C85.5 218.5 77 204 69.5 204C62 204 50.5 218.5 42 218.5C31.5 218.5 30.6 208.7 27 205.5" stroke="black" stroke-width="10"/>
</svg>
