<svg width="248" height="248" viewBox="0 0 248 248" fill="none" xmlns="http://www.w3.org/2000/svg">
<g filter="url(#filter0_d_15_2)">
<rect x="5.5" y="1.5" width="237" height="237" rx="28.5" stroke="black" stroke-width="3" shape-rendering="crispEdges"/>
</g>
<path d="M227 136L203.531 187H45.8163L20 136H123.5V119V98.5H42.5306L123.5 40.5V29L216.204 113.5L123.5 119V136H227Z" fill="black"/>
<path d="M123.5 136H20L45.8163 187H203.531L227 136H123.5ZM123.5 136V119M123.5 119L216.204 113.5L123.5 29V40.5M123.5 119V98.5M123.5 40.5L42.5306 98.5H123.5M123.5 40.5V98.5" stroke="black" stroke-width="10"/>
<path d="M216 204C207.5 204 193 218.5 184.5 218.5C176 218.5 174 204 164.5 204C155 204 150.5 218.5 143.5 218.5C136.5 218.5 129 204 121.5 204C114 204 106.5 218.5 98 218.5C89.5 218.5 81 204 73.5 204C66 204 54.5 218.5 46 218.5C35.5 218.5 34.6 208.7 31 205.5" stroke="black" stroke-width="10"/>
<defs>
<filter id="filter0_d_15_2" x="0" y="0" width="248" height="248" filterUnits="userSpaceOnUse" color-interpolation-filters="sRGB">
<feFlood flood-opacity="0" result="BackgroundImageFix"/>
<feColorMatrix in="SourceAlpha" type="matrix" values="0 0 0 0 0 0 0 0 0 0 0 0 0 0 0 0 0 0 127 0" result="hardAlpha"/>
<feOffset dy="4"/>
<feGaussianBlur stdDeviation="2"/>
<feComposite in2="hardAlpha" operator="out"/>
<feColorMatrix type="matrix" values="0 0 0 0 0 0 0 0 0 0 0 0 0 0 0 0 0 0 0.25 0"/>
<feBlend mode="normal" in2="BackgroundImageFix" result="effect1_dropShadow_15_2"/>
<feBlend mode="normal" in="SourceGraphic" in2="effect1_dropShadow_15_2" result="shape"/>
</filter>
</defs>
</svg>
