<svg xmlns="http://www.w3.org/2000/svg" viewbox="0 0 245 245" width="245" height="245">
  <!-- <path stroke="black" stroke-width="1" fill="none" d="M0 0 L0,240 240,240 240,0 z M0 60 L240, 60 z M0 120 L240 120 z M0 180 L240 180 z M60 0 L60 240z M120 0 L120 240 z M180 0 L180 240 z"/>  -->
    <!-- <path stroke="blue" stroke-width="5" fill="none" d="M120 10 L230, 120 V240 H160 V150 H80 V240 H10 V120 z"/> -->
    <path stroke="black" stroke-width="10" fill="none" d="M140 30 L210, 100 Q 230, 120 230, 150 V220 Q230, 240 210, 240 H160 V170 Q 160, 150 140,150 H100 q-20, 0 -20 20 V240 H30 q-20, 0 -20, -20 V140 q0, -20 20,-40 L100, 30 Q120 5 140, 30 z"/>
</svg>