<svg width="240" height="240" viewBox="0 0 240 240" fill="none" xmlns="http://www.w3.org/2000/svg">
<g clip-path="url(#clip0_56_23)">
<path d="M79.875 94.9984L79.9375 95H80H81H81.0625L81.125 94.9984C87.6992 94.834 93.9439 92.0858 98.506 87.3493C103.068 82.6128 105.58 76.2695 105.498 69.6937C105.416 63.118 102.746 56.8394 98.0668 52.2184C93.3877 47.5975 87.0763 45.0063 80.5 45.0063C73.9237 45.0063 67.6123 47.5975 62.9332 52.2184C58.2541 56.8394 55.5842 63.118 55.502 69.6937C55.4197 76.2695 57.9319 82.6128 62.494 87.3493C67.0561 92.0858 73.3008 94.834 79.875 94.9984ZM159.938 94.9996L159.969 95H160H160.5H160.531L160.562 94.9996C167.165 94.9171 173.467 92.2256 178.093 87.5127C182.718 82.7999 185.291 76.4485 185.25 69.8453C185.208 63.2421 182.556 56.9234 177.872 52.2687C173.188 47.6141 166.853 45.0016 160.25 45.0016C153.647 45.0016 147.312 47.6141 142.628 52.2687C137.944 56.9234 135.292 63.2421 135.25 69.8453C135.209 76.4485 137.782 82.7999 142.407 87.5127C147.033 92.2256 153.335 94.9171 159.938 94.9996ZM70 125H65V130C65 135.817 66.5311 141.521 69.4292 146.768C72.3217 152.005 76.5023 156.66 81.6447 160.517C86.7864 164.373 92.8216 167.382 99.3825 169.42C105.945 171.459 112.948 172.5 120 172.5C127.052 172.5 134.055 171.459 140.618 169.42C147.178 167.382 153.214 164.373 158.355 160.517C163.498 156.66 167.678 152.005 170.571 146.768C173.469 141.521 175 135.817 175 130V125H170H70ZM35 210V90C35 42.7614 72.7614 5 120 5C167.239 5 205 42.7614 205 90V225C205 228.069 203.704 230.014 201.642 231.36C199.368 232.844 195.978 233.661 192.208 233.504C188.455 233.348 184.902 232.246 182.438 230.57C180.046 228.942 179 227.053 179 225C179 218.669 175.365 214.178 170.805 211.534C166.392 208.975 160.871 207.929 155.682 208C150.485 208.072 145.016 209.27 140.665 211.832C136.243 214.438 132.5 218.82 132.5 225C132.5 226.252 131.847 227.663 129.072 229.009C126.245 230.379 122.073 231.148 117.518 231.063C112.985 230.979 108.64 230.06 105.545 228.577C102.307 227.025 101.555 225.481 101.484 224.596C101.051 219.257 97.9334 215.145 94.1816 212.438C90.4489 209.744 85.7682 208.17 81.1995 207.827C76.6602 207.485 71.6972 208.329 67.7177 211.145C63.5248 214.113 61 218.876 61 225C61 227.808 59.6978 230.118 57.334 231.93C54.8811 233.809 51.3974 235.016 47.7572 235.193C44.1056 235.371 40.8186 234.492 38.583 232.852C36.5289 231.344 35 228.955 35 225V210Z" stroke="black" stroke-width="10"/>
</g>
<defs>
<clipPath id="clip0_56_23">
<rect width="240" height="240" fill="white"/>
</clipPath>
</defs>
</svg>
