<svg width="240" height="240" viewBox="0 0 240 240" fill="none" xmlns="http://www.w3.org/2000/svg">
<path d="M25.5279 47.7639L25 48.8197V50V69.1782C23.4829 73.6061 22.0727 76.6271 20.8397 78.4765C20.4992 78.9873 20.2183 79.343 20 79.588C19.7817 79.343 19.5008 78.9873 19.1603 78.4765C17.9273 76.6271 16.5171 73.6061 15 69.1782V21.017C15.0131 21.0075 15.0266 20.9978 15.0404 20.9879C15.8805 20.3875 17.4549 19.5921 20.0035 18.7132C25.0375 16.977 32.7295 15.2946 42.9254 13.8381C63.2483 10.9348 90.977 9.28571 120 9.28571C149.023 9.28571 176.752 10.9348 197.075 13.8381C207.271 15.2946 214.962 16.977 219.997 18.7132C222.545 19.5921 224.12 20.3875 224.96 20.9879C224.973 20.9978 224.987 21.0075 225 21.017V89.1782C223.483 93.6061 222.073 96.6271 220.84 98.4765C220.499 98.9873 220.218 99.343 220 99.588C219.782 99.343 219.501 98.9873 219.16 98.4765C217.927 96.6271 216.517 93.6061 215 89.1782V60V59.1886L214.743 58.4189C213.025 53.2631 211.191 49.0233 209.16 45.9765C207.292 43.1745 204.321 40 200 40C195.679 40 192.708 43.1745 190.84 45.9765C188.809 49.0233 186.975 53.2631 185.257 58.4189L185 59.1886V60V109.178C183.483 113.606 182.073 116.627 180.84 118.477C180.499 118.987 180.218 119.343 180 119.588C179.782 119.343 179.501 118.987 179.16 118.477C177.927 116.627 176.517 113.606 175 109.178V80V79.1886L174.743 78.4189C173.025 73.2631 171.191 69.0233 169.16 65.9765C167.292 63.1745 164.321 60 160 60C155.679 60 152.708 63.1745 150.84 65.9765C148.809 69.0233 146.975 73.2631 145.257 78.4189C143.642 83.2631 142.142 86.5233 140.84 88.4765C140.499 88.9873 140.218 89.343 140 89.588C139.782 89.343 139.501 88.9873 139.16 88.4765C137.927 86.6271 136.517 83.6061 135 79.1782V50V49.1886L134.743 48.4189C133.025 43.2631 131.191 39.0233 129.16 35.9765C127.292 33.1745 124.321 30 120 30C115.679 30 112.708 33.1745 110.84 35.9765C108.809 39.0233 106.975 43.2631 105.257 48.4189L105 49.1886V50V89.1782C103.483 93.6061 102.073 96.6271 100.84 98.4765C100.499 98.9873 100.218 99.343 100 99.588C99.7817 99.343 99.5008 98.9873 99.1602 98.4765C97.9273 96.6271 96.5171 93.6061 95 89.1782V75V74.1886L94.7434 73.4189C93.0248 68.2631 91.1914 64.0233 89.1603 60.9765C87.2923 58.1745 84.321 55 80 55C75.679 55 72.7077 58.1745 70.8397 60.9765C68.8086 64.0233 66.9752 68.2631 65.2566 73.4189L65 74.1886V75V119.178C63.4829 123.606 62.0727 126.627 60.8397 128.477C60.4992 128.987 60.2183 129.343 60 129.588C59.7817 129.343 59.5008 128.987 59.1603 128.477C57.9273 126.627 56.5171 123.606 55 119.178V50V48.8197L54.4721 47.7639C52.6878 44.1953 50.737 41.1659 48.5355 38.9645C46.3239 36.7528 43.4605 35 40 35C36.5395 35 33.6761 36.7528 31.4645 38.9645C29.263 41.1659 27.3122 44.1953 25.5279 47.7639ZM19.4452 80.0976C19.4452 80.0975 19.4471 80.0964 19.4508 80.0946C19.4471 80.0967 19.4452 80.0976 19.4452 80.0976ZM20.5492 80.0946C20.5529 80.0965 20.5548 80.0975 20.5548 80.0976C20.5548 80.0976 20.5529 80.0967 20.5492 80.0946ZM14.584 21.3701C14.5818 21.37 14.5957 21.3518 14.6324 21.3159C14.6046 21.3523 14.5862 21.3702 14.584 21.3701ZM225.416 21.3701C225.414 21.3702 225.395 21.3523 225.368 21.3159C225.404 21.3518 225.418 21.37 225.416 21.3701ZM219.445 100.098C219.445 100.098 219.447 100.096 219.451 100.095C219.447 100.097 219.445 100.098 219.445 100.098ZM220.549 100.095C220.553 100.096 220.555 100.098 220.555 100.098C220.555 100.098 220.553 100.097 220.549 100.095ZM179.445 120.098C179.445 120.098 179.447 120.097 179.451 120.095C179.447 120.097 179.445 120.098 179.445 120.098ZM180.549 120.095C180.553 120.096 180.555 120.098 180.555 120.098C180.555 120.098 180.553 120.097 180.549 120.095ZM139.445 90.0976C139.445 90.0975 139.447 90.0965 139.451 90.0947C139.447 90.0967 139.445 90.0976 139.445 90.0976ZM140.549 90.0946C140.553 90.0965 140.555 90.0975 140.555 90.0976C140.555 90.0976 140.553 90.0967 140.549 90.0946ZM99.4452 100.098C99.4452 100.098 99.4471 100.096 99.4508 100.095C99.4471 100.097 99.4452 100.098 99.4452 100.098ZM100.549 100.095C100.553 100.096 100.555 100.098 100.555 100.098C100.555 100.098 100.553 100.097 100.549 100.095ZM59.4452 130.098C59.4452 130.098 59.4471 130.096 59.4507 130.095C59.4471 130.097 59.4452 130.098 59.4452 130.098ZM60.5493 130.095C60.5529 130.096 60.5548 130.098 60.5548 130.098C60.5548 130.098 60.5529 130.097 60.5493 130.095Z" stroke="black" stroke-width="10"/>
<path d="M15 80V190C15 197.956 26.0625 205.587 45.7538 211.213C65.4451 216.839 92.1523 220 120 220C147.848 220 174.555 216.839 194.246 211.213C213.938 205.587 225 197.956 225 190V100H215V180C215 187.199 204.991 194.103 187.175 199.193C169.359 204.283 145.196 207.143 120 207.143C94.8044 207.143 70.6408 204.283 52.8249 199.193C35.0089 194.103 25 187.199 25 180V80" fill="black"/>
</svg>
