<svg width="271" height="274" viewBox="0 0 271 274" fill="none" xmlns="http://www.w3.org/2000/svg">
<rect x="6.25" y="6.25" width="258.5" height="261.5" rx="23.75" stroke="black" stroke-width="12.5"/>
<path d="M23 142H67H23Z" fill="black"/>
<path d="M23 142H67" stroke="black" stroke-width="12.5"/>
<path d="M26.4375 121V164V121Z" fill="black"/>
<path d="M26.4375 121V164" stroke="black" stroke-width="12.5"/>
<path d="M63.5625 122V165V122Z" fill="black"/>
<path d="M63.5625 122V165" stroke="black" stroke-width="12.5"/>
<path d="M206 141H250H206Z" fill="black"/>
<path d="M206 141H250" stroke="black" stroke-width="12.5"/>
<path d="M209.438 120V163V120Z" fill="black"/>
<path d="M209.438 120V163" stroke="black" stroke-width="12.5"/>
<path d="M246.562 121V164V121Z" fill="black"/>
<path d="M246.562 121V164" stroke="black" stroke-width="12.5"/>
<path d="M135.532 19V63V19Z" fill="black"/>
<path d="M135.532 19V63" stroke="black" stroke-width="12.5"/>
<path d="M114 23.0741H158H114Z" fill="black"/>
<path d="M114 23.0741H158" stroke="black" stroke-width="12.5"/>
<path d="M114 59.7407H158H114Z" fill="black"/>
<path d="M114 59.7407H158" stroke="black" stroke-width="12.5"/>
<path d="M135.532 210V254V210Z" fill="black"/>
<path d="M135.532 210V254" stroke="black" stroke-width="12.5"/>
<path d="M114 214.074H158H114Z" fill="black"/>
<path d="M114 214.074H158" stroke="black" stroke-width="12.5"/>
<path d="M114 250.741H158H114Z" fill="black"/>
<path d="M114 250.741H158" stroke="black" stroke-width="12.5"/>
<path d="M80 184.5L90.0866 175.566C94.1925 171.929 100.462 172.279 104.138 176.349L104.621 176.884C108.343 181.005 114.775 181.116 118.637 177.125L119.35 176.388C123.095 172.518 129.417 172.932 132.626 177.257V177.257C135.565 181.217 141.2 181.957 145.061 178.888L150.278 174.741C154.357 171.498 160.243 171.932 163.803 175.737L165.407 177.453C168.839 181.122 174.757 180.785 177.75 176.75V176.75C180.743 172.715 186.661 172.378 190.093 176.047L198 184.5" stroke="black" stroke-width="5"/>
<path d="M75 202.5L85.0866 193.566C89.1925 189.929 95.4615 190.279 99.138 194.349L99.6213 194.884C103.343 199.005 109.775 199.116 113.637 195.125L114.35 194.388C118.095 190.518 124.417 190.932 127.626 195.257V195.257C130.565 199.217 136.2 199.957 140.061 196.888L145.278 192.741C149.357 189.498 155.243 189.932 158.803 193.737L160.407 195.453C163.839 199.122 169.757 198.785 172.75 194.75V194.75C175.743 190.715 181.661 190.378 185.093 194.047L193 202.5" stroke="black" stroke-width="5"/>
<path d="M80 127.5L90.0866 118.566C94.1925 114.929 100.462 115.279 104.138 119.349L104.621 119.884C108.343 124.005 114.775 124.116 118.637 120.125L119.35 119.388C123.095 115.518 129.417 115.932 132.626 120.257V120.257C135.565 124.217 141.2 124.957 145.061 121.888L150.278 117.741C154.357 114.498 160.243 114.932 163.803 118.737L165.407 120.453C168.839 124.122 174.757 123.785 177.75 119.75V119.75C180.743 115.715 186.661 115.378 190.093 119.047L198 127.5" stroke="black" stroke-width="5"/>
<path d="M80 86.5L90.0866 77.5662C94.1925 73.9295 100.462 74.2788 104.138 78.3492L104.621 78.8842C108.343 83.0049 114.775 83.1156 118.637 79.1254L119.35 78.3879C123.095 74.5182 129.417 74.9319 132.626 79.2566V79.2566C135.565 83.2174 141.2 83.9566 145.061 80.8877L150.278 76.7408C154.357 73.4982 160.243 73.9319 163.803 77.7375L165.407 79.4528C168.839 83.1215 174.757 82.7846 177.75 78.75V78.75C180.743 74.7154 186.661 74.3785 190.093 78.0472L198 86.5" stroke="black" stroke-width="5"/>
<path d="M80 109.5L90.0866 100.566C94.1925 96.9295 100.462 97.2788 104.138 101.349L104.621 101.884C108.343 106.005 114.775 106.116 118.637 102.125L119.35 101.388C123.095 97.5182 129.417 97.9319 132.626 102.257V102.257C135.565 106.217 141.2 106.957 145.061 103.888L150.278 99.7408C154.357 96.4982 160.243 96.9319 163.803 100.737L165.407 102.453C168.839 106.122 174.757 105.785 177.75 101.75V101.75C180.743 97.7154 186.661 97.3785 190.093 101.047L198 109.5" stroke="black" stroke-width="5"/>
<path d="M80 147.5L90.0866 138.566C94.1925 134.929 100.462 135.279 104.138 139.349L104.621 139.884C108.343 144.005 114.775 144.116 118.637 140.125L119.35 139.388C123.095 135.518 129.417 135.932 132.626 140.257V140.257C135.565 144.217 141.2 144.957 145.061 141.888L150.278 137.741C154.357 134.498 160.243 134.932 163.803 138.737L165.407 140.453C168.839 144.122 174.757 143.785 177.75 139.75V139.75C180.743 135.715 186.661 135.378 190.093 139.047L198 147.5" stroke="black" stroke-width="5"/>
<path d="M80 165.5L90.0866 156.566C94.1925 152.929 100.462 153.279 104.138 157.349L104.621 157.884C108.343 162.005 114.775 162.116 118.637 158.125L119.35 157.388C123.095 153.518 129.417 153.932 132.626 158.257V158.257C135.565 162.217 141.2 162.957 145.061 159.888L150.278 155.741C154.357 152.498 160.243 152.932 163.803 156.737L165.407 158.453C168.839 162.122 174.757 161.785 177.75 157.75V157.75C180.743 153.715 186.661 153.378 190.093 157.047L198 165.5" stroke="black" stroke-width="5"/>
</svg>
