<svg width="240" height="247" viewBox="0 0 240 247" fill="none" xmlns="http://www.w3.org/2000/svg">
<path d="M19.4174 120.5V33.3322C19.4174 33.3322 19.4174 5 46.5 5H78M19.4174 120.5H0M19.4174 120.5V210C19.4174 210 19.4174 241.5 46.5 241.5C54.2202 241.5 70.2798 241.5 78 241.5" stroke="black" stroke-width="10"/>
<path d="M220.583 120.5V33.3322C220.583 33.3322 220.583 5 193.5 5H162M220.583 120.5H240M220.583 120.5V210C220.583 210 220.583 241.5 193.5 241.5C185.78 241.5 169.72 241.5 162 241.5" stroke="black" stroke-width="10"/>
<path d="M61 68.4417C62.188 59.8881 64.1972 50.4588 68.251 42.7198L104.277 27.2256C113.216 27.2256 122.484 26.5355 131.373 27.5691L168.11 41.168C173.922 47.4099 176.238 51.5559 179 59.5115V84.2388C175.23 90.0428 166.269 96.4361 161.31 101.24C157.056 105.361 153.375 109.174 147.708 113.708C141.474 121.642 131.373 125.609 131.373 125.609C120.674 131.309 111.837 136.944 111.837 148.66C111.837 157.912 111.837 175.481 111.837 175.481V194.183M111.837 213.451V219.685" stroke="black" stroke-width="11.3344" stroke-linecap="round"/>
</svg>
